<svg id="Camada_1" data-name="Camada 1" xmlns="http://www.w3.org/2000/svg" viewBox="0 0 544.433 77.995"><defs><style>.cls-1{fill:#fff;stroke-width:0}</style></defs><path class="cls-1" d="M76.657 18.173c0 5.52-3.423 12.806-7.728 20.313-4.968 8.721-10.046 19.21-10.046 28.703 0 1.657 1.214 2.87 2.208 3.754.662.662 1.545 1.657 1.545 2.65 0 1.766-.883 3.2-3.202 3.2-2.98 0-6.182-2.87-6.182-10.266 0-10.598 5.52-20.975 10.157-29.696 3.753-6.845 7.065-13.359 7.065-18.768 0-1.325-1.325-2.429-2.54-2.429-7.285 0-20.754 13.358-32.456 27.71-5.85 7.176-9.825 15.677-10.929 17.995-1.546 3.201-2.318 4.637-3.864 4.637-1.877 0-3.201-1.326-3.201-2.982 0-1.103.551-2.76 1.766-4.747 2.65-4.415 7.396-14.241 11.15-22.41 4.636-9.936 8.39-19.651 8.39-23.073 0-1.987-1.214-3.091-3.312-3.091-11.15 0-28.592 13.358-28.592 18.988 0 3.091-1.104 5.078-3.423 5.078-2.429 0-3.201-1.545-3.201-3.643 0-10.157 22.852-26.164 37.314-26.164 4.747 0 7.396 3.422 7.396 8.17 0 5.409-3.532 14.13-7.838 22.962C47.291 23.583 59.876 9.894 69.04 9.894c4.416 0 7.618 2.98 7.618 8.28z"/><path class="cls-1" d="M94.32 37.935c2.097 0 3.311 1.214 3.311 2.76 0 1.876-3.974 6.623-5.299 9.493-1.104 2.208-1.987 4.637-1.987 6.183 0 1.104.441 2.318 1.435 2.318 3.643 0 9.826-6.624 13.8-11.37 1.325-1.657 2.76-3.423 3.974-3.423.994 0 1.767.551 1.767 1.656 0 1.214-.553 1.987-1.877 3.642-5.3 6.293-13.8 14.574-19.43 14.574-3.643 0-5.41-2.54-5.41-5.631 0-1.214.11-2.319.221-3.864-3.201 3.202-10.708 10.708-15.676 10.708-1.435 0-3.754-1.987-3.754-4.857 0-11.371 12.806-22.41 21.197-22.41 1.766 0 3.422 1.103 4.526 2.428.331 0 1.545-2.207 3.202-2.207zM71.357 58.137c0 .552.441.884.993.884 1.656 0 15.235-11.814 15.235-13.91 0-1.215-.993-2.209-2.428-2.209-4.416 0-13.8 10.157-13.8 15.235z"/><path class="cls-1" d="M112.864 43.785c0 2.65-.994 7.066-1.877 10.488-.441 1.656-.883 3.864-.883 4.084 0 .443.221.553.442.553 2.539 0 13.027-13.8 13.027-24.067 0-1.766-1.546-3.091-1.546-4.968 0-1.435 1.104-2.87 2.54-2.87 1.545 0 3.973.22 3.973 7.176 0 10.046-12.033 30.138-19.76 30.138-2.32 0-4.527-1.987-4.527-4.747 0-1.103.662-3.311 1.325-5.299.883-3.091 1.766-6.403 1.766-8.942 0-1.546-.331-2.429-.331-3.312 0-1.656 1.214-2.76 2.539-2.76 1.656 0 3.312 1.435 3.312 4.526zM151.283 43.896c.993 0 1.766.551 1.766 1.656 0 1.214-.552 1.987-1.877 3.642-5.188 6.293-15.124 15.456-20.754 15.456-2.319 0-4.858-1.987-4.858-5.85 0-4.858 5.63-15.677 6.514-17.333 1.324-2.208 2.428-3.974 3.974-3.974 1.546 0 2.76.883 2.76 2.318 0 1.545-.773 2.318-1.435 3.312-3.202 5.189-6.293 12.806-6.293 15.014 0 .773.552 1.766 1.546 1.766 2.98 0 10.929-7.507 14.682-12.585 1.325-1.656 2.76-3.422 3.975-3.422zm-1.214-22.853c0 2.871-2.981 4.637-4.416 4.637-1.767 0-2.43-2.318-2.43-3.974 0-1.767 1.767-3.975 4.196-3.975 1.324 0 2.65.663 2.65 3.312z"/><path class="cls-1" d="M165.964 39.48c1.215-5.189 3.533-12.475 7.839-21.638 4.636-9.825 10.598-14.241 14.572-14.241 3.201 0 4.968 2.208 4.968 5.52 0 3.974-1.877 9.714-7.507 18.657-4.305 6.845-9.494 12.806-12.585 16.338-1.656 1.877-3.202 3.423-3.533 4.416-.994 1.988-1.435 4.637-1.435 7.507 0 2.318.22 7.95 2.65 8.501 1.103.22 2.207.441 2.207 1.436 0 1.103-1.656 2.649-4.085 2.649-5.299 0-6.292-6.734-6.292-12.144-4.857 5.3-11.371 8.942-14.904 8.942-2.208 0-5.85-1.766-5.85-6.513 0-8.06 11.039-21.197 18.215-21.197 2.98 0 4.747 1.215 5.74 1.767zM147.75 57.916c0 1.436.883 2.208 1.876 2.208 3.423 0 13.469-10.487 14.131-13.69-.662-.22-1.545-.662-1.656-1.876-.11-.883-.993-1.325-1.876-1.325-4.858.331-12.475 10.71-12.475 14.683zm30.47-37.093c-3.423 6.844-6.624 18.326-6.624 18.326 2.097-2.429 6.734-7.838 10.487-14.573 4.637-8.28 6.182-11.592 6.182-14.572 0-.883-.33-1.214-1.324-1.214-.884 0-4.195 3.09-8.721 12.033z"/><path class="cls-1" d="M200.96 37.935c2.097 0 3.311 1.214 3.311 2.76 0 1.876-3.974 6.623-5.299 9.493-1.104 2.208-1.987 4.637-1.987 6.183 0 1.104.442 2.318 1.435 2.318 3.643 0 9.826-6.624 13.8-11.37 1.325-1.657 2.76-3.423 3.974-3.423.994 0 1.767.551 1.767 1.656 0 1.214-.553 1.987-1.877 3.642-5.299 6.293-13.8 14.574-19.43 14.574-3.643 0-5.41-2.54-5.41-5.631 0-1.214.11-2.319.221-3.864-3.201 3.202-10.708 10.708-15.676 10.708-1.435 0-3.754-1.987-3.754-4.857 0-11.371 12.807-22.41 21.197-22.41 1.766 0 3.422 1.103 4.526 2.428.331 0 1.546-2.207 3.201-2.207zm-22.963 20.202c0 .552.441.884.994.884 1.655 0 15.234-11.814 15.234-13.91 0-1.215-.993-2.209-2.428-2.209-4.416 0-13.8 10.157-13.8 15.235z"/><path class="cls-1" d="M231.096 39.48c1.214-5.189 3.533-12.475 7.839-21.638 4.636-9.825 10.598-14.241 14.572-14.241 3.201 0 4.968 2.208 4.968 5.52 0 3.974-1.877 9.714-7.507 18.657-4.306 6.845-9.494 12.806-12.585 16.338-1.657 1.877-3.202 3.423-3.533 4.416-.994 1.988-1.436 4.637-1.436 7.507 0 2.318.222 7.95 2.65 8.501 1.104.22 2.208.441 2.208 1.436 0 1.103-1.656 2.649-4.085 2.649-5.299 0-6.292-6.734-6.292-12.144-4.858 5.3-11.371 8.942-14.904 8.942-2.208 0-5.851-1.766-5.851-6.513 0-8.06 11.04-21.197 18.216-21.197 2.98 0 4.747 1.215 5.74 1.767zm-18.215 18.436c0 1.436.883 2.208 1.876 2.208 3.422 0 13.469-10.487 14.131-13.69-.662-.22-1.545-.662-1.656-1.876-.11-.883-.993-1.325-1.876-1.325-4.858.331-12.475 10.71-12.475 14.683zm30.469-37.093c-3.422 6.844-6.624 18.326-6.624 18.326 2.098-2.429 6.734-7.838 10.488-14.573 4.637-8.28 6.183-11.592 6.183-14.572 0-.883-.331-1.214-1.325-1.214-.883 0-4.196 3.09-8.722 12.033zM289.605 43.896c.994 0 1.766.551 1.766 1.656 0 1.214-.551 1.987-1.877 3.642-5.188 6.404-14.13 15.898-26.384 15.898-3.643 0-6.735-2.87-6.735-7.728 0-.662-.551-.993-.551-2.208 0-1.103.994-2.428 2.097-2.76 4.196-9.825 11.813-14.683 17.553-14.683 2.318 0 4.858 1.767 4.858 4.195 0 5.741-9.273 12.255-16.56 13.91-1.435.332-1.876 1.105-1.876 1.877 0 .884.993 2.98 3.09 2.98 9.274 0 16.67-8.5 20.645-13.357 1.324-1.656 2.76-3.422 3.974-3.422zm-26.164 7.949c3.974-.774 11.481-6.183 11.481-8.06 0-.662-.22-1.103-.883-1.103-2.65 0-8.5 5.85-10.598 9.163z"/><path class="cls-1" d="M329.678 43.896c.993 0 1.767.551 1.767 1.656 0 1.214-.553 1.987-1.877 3.642-5.078 6.293-12.365 14.574-17.885 14.574-5.52 0-6.514-5.079-6.514-9.936 0-2.429.663-5.741.663-8.39 0-.552-.33-1.215-.994-1.215-3.09 0-13.578 11.702-16.118 15.125-1.103 1.434-2.097 6.293-3.974 6.293-1.987 0-3.754-.774-3.754-2.982 0-2.76 4.306-14.13 6.404-20.644 1.546-4.968 2.318-6.624 5.188-6.624.773 0 2.319.773 2.319 2.318 0 1.546-.442 2.54-1.546 5.63-.662 1.767-2.097 6.625-2.319 7.287 3.534-3.975 11.482-12.585 16.34-12.585 2.428 0 4.305 1.545 4.305 4.194 0 3.313-.662 6.514-.662 10.378 0 3.422.22 6.404 2.318 6.404 2.54 0 8.611-6.625 12.364-11.703 1.326-1.656 2.76-3.422 3.975-3.422z"/><path class="cls-1" d="M353.081 43.896c.994 0 1.767.551 1.767 1.656 0 1.214-.553 1.987-1.877 3.642-5.188 6.404-15.897 15.567-25.281 15.567-2.429 0-6.735-1.877-6.735-7.176 0-7.176 10.378-19.872 19.099-19.872 2.65 0 5.41 2.318 5.41 4.858 0 3.422-3.533 6.513-5.851 6.513-.994 0-1.988-.662-1.988-2.208 0-.993.663-1.766 1.325-2.208.552-.331 1.104-.772 1.104-1.324 0-.11-.22-.331-.552-.331-3.864 0-12.585 8.279-12.585 14.24 0 1.436.883 2.76 2.208 2.76 7.176 0 16.117-7.617 19.982-12.695 1.325-1.656 2.76-3.422 3.974-3.422z"/><path class="cls-1" d="M372.841 37.935c2.098 0 3.313 1.214 3.313 2.76 0 1.876-3.975 6.623-5.3 9.493-1.104 2.208-1.987 4.637-1.987 6.183 0 1.104.442 2.318 1.435 2.318 3.644 0 9.825-6.624 13.8-11.37 1.325-1.657 2.76-3.423 3.974-3.423.994 0 1.766.551 1.766 1.656 0 1.214-.552 1.987-1.876 3.642-5.3 6.293-13.8 14.574-19.43 14.574-3.643 0-5.41-2.54-5.41-5.631 0-1.214.11-2.319.221-3.864-3.201 3.202-10.708 10.708-15.676 10.708-1.435 0-3.754-1.987-3.754-4.857 0-11.371 12.806-22.41 21.197-22.41 1.766 0 3.421 1.103 4.526 2.428.331 0 1.546-2.207 3.201-2.207zm-22.963 20.202c0 .552.443.884.994.884 1.657 0 15.235-11.814 15.235-13.91 0-1.215-.993-2.209-2.429-2.209-4.416 0-13.8 10.157-13.8 15.235z"/><path class="cls-1" d="M428.149 43.896c.993 0 1.766.551 1.766 1.656 0 1.214-.552 1.987-1.877 3.642-5.078 6.293-12.364 14.574-17.884 14.574s-6.514-5.079-6.514-9.936c0-2.429.663-5.741.663-8.39 0-.552-.331-1.215-.994-1.215-3.09 0-13.578 11.702-16.118 15.125-1.104 1.434-2.097 6.293-3.974 6.293-1.987 0-3.754-.774-3.754-2.982 0-2.76 4.306-14.13 6.404-20.644 1.545-4.968 2.318-6.624 5.188-6.624.772 0 2.318.773 2.318 2.318 0 1.546-.441 2.54-1.546 5.63-.662 1.767-2.096 6.625-2.318 7.287 3.533-3.975 11.482-12.585 16.339-12.585 2.429 0 4.306 1.545 4.306 4.194 0 3.313-.662 6.514-.662 10.378 0 3.422.22 6.404 2.318 6.404 2.539 0 8.611-6.625 12.364-11.703 1.325-1.656 2.76-3.422 3.975-3.422z"/><path class="cls-1" d="M430.245 30.87c.883 0 1.988-.111 2.98-.443 3.865-6.734 5.63-10.377 7.618-13.027 1.877-2.649 3.202-3.974 4.857-3.974 1.988 0 2.76.884 2.76 2.54 0 1.434-.441 2.318-2.65 4.084-1.544 1.104-2.207 2.76-5.298 8.28 1.877-.552 4.085-.994 6.293-.994 4.085 0 6.071 1.104 6.071 3.643 0 2.208-1.765 4.748-3.422 4.748-1.325 0-1.656-.663-1.656-1.325 0-.552.22-.994.22-1.546 0-.441-.992-.883-2.318-.883-2.208 0-5.74.883-8.72 1.877-6.183 10.928-12.033 23.845-12.033 29.476 0 .993.772 2.097.772 2.76 0 .993-.994 2.539-2.65 2.539-1.987 0-3.091-1.546-3.091-4.637 0-5.851 5.41-18.436 10.378-28.261-5.3 0-6.514-.773-6.514-2.54 0-1.766 1.105-3.201 3.09-3.201 1.105 0 1.988.883 3.313.883z"/><path class="cls-1" d="M462.038 37.935c2.098 0 3.313 1.214 3.313 2.76 0 1.876-3.975 6.623-5.3 9.493-1.103 2.208-1.986 4.637-1.986 6.183 0 1.104.441 2.318 1.434 2.318 3.644 0 9.826-6.624 13.8-11.37 1.325-1.657 2.76-3.423 3.975-3.423.993 0 1.765.551 1.765 1.656 0 1.214-.551 1.987-1.876 3.642-5.3 6.293-13.8 14.574-19.43 14.574-3.643 0-5.41-2.54-5.41-5.631 0-1.214.11-2.319.221-3.864-3.2 3.202-10.708 10.708-15.676 10.708-1.435 0-3.753-1.987-3.753-4.857 0-11.371 12.805-22.41 21.196-22.41 1.766 0 3.422 1.103 4.526 2.428.331 0 1.546-2.207 3.201-2.207zm-22.963 20.202c0 .552.443.884.995.884 1.656 0 15.234-11.814 15.234-13.91 0-1.215-.993-2.209-2.429-2.209-4.416 0-13.8 10.157-13.8 15.235z"/><path class="cls-1" d="M492.175 39.48c1.215-5.189 3.533-12.475 7.839-21.638 4.636-9.825 10.598-14.241 14.572-14.241 3.201 0 4.968 2.208 4.968 5.52 0 3.974-1.877 9.714-7.507 18.657-4.305 6.845-9.494 12.806-12.586 16.338-1.655 1.877-3.2 3.423-3.532 4.416-.994 1.988-1.436 4.637-1.436 7.507 0 2.318.221 7.95 2.65 8.501 1.104.22 2.208.441 2.208 1.436 0 1.103-1.655 2.649-4.084 2.649-5.3 0-6.293-6.734-6.293-12.144-4.857 5.3-11.371 8.942-14.904 8.942-2.207 0-5.851-1.766-5.851-6.513 0-8.06 11.04-21.197 18.216-21.197 2.98 0 4.747 1.215 5.74 1.767zM473.96 57.916c0 1.436.884 2.208 1.877 2.208 3.423 0 13.469-10.487 14.131-13.69-.662-.22-1.545-.662-1.655-1.876-.112-.883-.994-1.325-1.877-1.325-4.858.331-12.476 10.71-12.476 14.683zm30.47-37.093c-3.422 6.844-6.623 18.326-6.623 18.326 2.097-2.429 6.733-7.838 10.487-14.573 4.637-8.28 6.183-11.592 6.183-14.572 0-.883-.331-1.214-1.325-1.214-.883 0-4.196 3.09-8.722 12.033z"/><path class="cls-1" d="M527.17 37.935c2.098 0 3.313 1.214 3.313 2.76 0 1.876-3.975 6.623-5.3 9.493-1.104 2.208-1.986 4.637-1.986 6.183 0 1.104.441 2.318 1.434 2.318 3.644 0 9.825-6.624 13.8-11.37 1.325-1.657 2.76-3.423 3.975-3.423.993 0 1.765.551 1.765 1.656 0 1.214-.552 1.987-1.876 3.642-5.3 6.293-13.8 14.574-19.43 14.574-3.643 0-5.41-2.54-5.41-5.631 0-1.214.11-2.319.221-3.864-3.201 3.202-10.708 10.708-15.676 10.708-1.435 0-3.754-1.987-3.754-4.857 0-11.371 12.806-22.41 21.197-22.41 1.766 0 3.422 1.103 4.526 2.428.331 0 1.546-2.207 3.201-2.207zm-22.962 20.202c0 .552.442.884.993.884 1.657 0 15.235-11.814 15.235-13.91 0-1.215-.993-2.209-2.429-2.209-4.416 0-13.799 10.157-13.799 15.235z"/></svg>